# xmcd
#
# Track frame offsets:
#	150
#	19353
#	35077
#	51915
#	65238
#	84796
#	104198
#	119578
#	133847
#	154953
#	170621
#	189505
#	203166
#	218171
#	234602
#
# Disc length: 3302 seconds
#
# Revision: 0
# Processed by: cddbd v1.5.2PL0 Copyright (c) Steve Scherf et al.
# Submitted via: audiograbber 1.83.01
#
DISCID=e90ce40f
DTITLE=VARIOS - EU NÃO SOU CACHORRO, MESMO
DYEAR=1900
DGENRE=
TTITLE0=CLÃ - TORTURA DE AMOR
TTITLE1=FERNANDA TAKAI-A.REZANDE-E.MACHADO-J.ULHOA-L.CAMARGO - ESCONDA O PRANTO
TTITLE1=NUM SORRISO
TTITLE2=OS THE DARMA LÓVERS - RETALHOS DE CETIM
TTITLE3=CLUBE DO BALANÇO-LUIA VAGNER - COMO
TTITLE4=LULA QUEIROGA-CHINA - IMPOSSÍVEL ACREDITAR QUE PERDI VOC
TTITLE5=SILVÉRIO PESSOA-SIR ROSSI - DEIXA DE BANCA
TTITLE6=FINO COLETIVO - EU TE AMO MEU BRASIL
TTITLE7=A EUTERPIA - VOCÊ GOSTA DE MIM
TTITLE8=MÓVEIS COLONIAIS DE ACAJU - SORRIA, SORRIA
TTITLE9=LARANJA FREAK - MON AMOUR, MEU BEM, MA FEME
TTITLE10=RAMIREZ - MEU PEQUENO AMIGO
TTITLE11=RÁDIO DE OUTONO - DE QUE VALE TER TUDO NA VIDA
TTITLE12=LOS DIANOS - VOCÊ É DOIDA DEMAIS
TTITLE13=ÉRIKA E TELECATS - AINDA QUEIMA A ESPERANÇA
TTITLE14=FRANK JORGE E BANDA - A DAMA DE VERMELHO
EXTD=
EXTT0=
EXTT1=
EXTT2=
EXTT3=
EXTT4=
EXTT5=
EXTT6=
EXTT7=
EXTT8=
EXTT9=
EXTT10=
EXTT11=
EXTT12=
EXTT13=
EXTT14=
PLAYORDER=
